# xmcd
#
# Track frame offsets:
# 182
# 16182
# 36147
# 55315
# 69382
# 83490
# 101280
# 118985
# 132790
# 147212
# 159872
# 175497
# 190235
# 208742
# 227735
#
# Disc length: 3085 seconds
#
#
# Revision: 0
# Processed by: cddbd v1.5.1PL2 Copyright (c) Steve Scherf et al.
# Submitted via: FreeRIP 2.941 
#
DISCID=c40c0b0f
DTITLE=la gora fria
DYEAR=1900
DGENRE=
TTITLE0=la gota fria
TTITLE1=amor sensible
TTITLE2=alicia adorada
TTITLE3=la hamaca grande
TTITLE4=el cantor de fonseca
TTITLE5=matilde lina
TTITLE6=altos del rosario
TTITLE7=honda herida la canaguatera
TTITLE8=lirio rojo la tijera
TTITLE9=compae chipuco pedazo
TTITLE10=la tijera compae
TTITLE11=chipuco pedazo de acordeon
TTITLE12=la celosa
TTITLE13=contestacion a la
TTITLE14=la brasilera
EXTD=
EXTT0=
EXTT1=
EXTT2=
EXTT3=
EXTT4=
EXTT5=
EXTT6=
EXTT7=
EXTT8=
EXTT9=
EXTT10=
EXTT11=
EXTT12=
EXTT13=
EXTT14=
PLAYORDER=
